<svg version="1.1" id="Layer_1" xmlns="http://www.w3.org/2000/svg" xmlns:xlink="http://www.w3.org/1999/xlink" x="0px" y="0px"
	 width="100%" viewBox="0 0 512 512" enable-background="new 0 0 512 512" xml:space="preserve">
<path fill="#000000" opacity="1.000000" stroke="none" 
	d="
M235.000000,513.000000 
	C156.685654,513.000000 78.871307,513.000000 1.028483,513.000000 
	C1.028483,342.393951 1.028483,171.787918 1.028483,1.090937 
	C171.564377,1.090937 342.128815,1.090937 512.846619,1.090937 
	C512.846619,171.666565 512.846619,342.333252 512.846619,513.000000 
	C420.454559,513.000000 327.977264,513.000000 235.000000,513.000000 
M272.909760,94.387642 
	C266.547119,91.827553 260.297455,90.568878 253.146729,91.798805 
	C239.668472,94.117096 227.957443,106.817825 227.967499,121.093109 
	C228.031418,211.718246 227.955124,302.343475 228.037292,392.968597 
	C228.054031,411.431213 244.180511,424.121582 260.950562,422.805542 
	C278.670074,421.414978 289.961823,408.230835 289.973358,390.548737 
	C290.031433,301.422943 290.049957,212.296967 289.942413,123.171234 
	C289.927460,110.784340 284.776154,100.951820 272.909760,94.387642 
M181.421463,356.088135 
	C194.342392,350.303314 199.886765,339.715393 199.935577,326.190674 
	C200.103256,279.720703 200.034805,233.249649 199.926941,186.779297 
	C199.919189,183.442795 199.164062,180.025742 198.253479,176.787567 
	C193.775574,160.863434 176.523270,151.841492 160.120239,156.033325 
	C149.082367,158.854080 138.034454,172.085358 138.023331,182.641113 
	C137.970978,232.276306 137.892914,281.912048 138.110352,331.546356 
	C138.144730,339.397278 142.353958,345.866974 148.234665,351.002960 
	C157.927170,359.467957 168.940552,360.798279 181.421463,356.088135 
M380.000000,236.500000 
	C380.000000,219.174240 379.819305,201.845764 380.079987,184.523926 
	C380.201324,176.462418 376.984161,169.899948 371.767700,164.448425 
	C363.936401,156.264160 354.174133,153.496613 342.935089,155.966431 
	C329.471313,158.925110 319.324219,169.061874 319.195648,182.222137 
	C318.709198,232.028931 318.957245,281.843384 319.045258,331.654755 
	C319.058746,339.291687 322.645996,346.246613 328.057037,350.722534 
	C335.959320,357.259094 345.365234,360.392517 356.439240,358.202637 
	C370.038910,355.513306 380.072174,341.433167 380.037231,330.958984 
	C379.933319,299.806274 380.000000,268.653046 380.000000,236.500000 
M48.000000,288.316833 
	C47.866737,297.264526 52.029476,304.097046 58.421265,309.943146 
	C68.500229,319.161621 82.446968,319.956360 93.787193,313.724609 
	C105.594055,307.236389 109.841949,296.562836 109.957878,283.851746 
	C110.123383,265.705536 109.992790,247.556702 110.001945,229.408981 
	C110.011787,209.913025 95.213463,193.361359 72.673126,196.924911 
	C60.230026,198.892105 47.745125,212.437836 47.924076,225.424149 
	C48.208508,246.065338 48.000000,266.713318 48.000000,288.316833 
M410.000061,292.309967 
	C412.492920,307.882538 427.588196,319.818909 445.447083,317.215637 
	C459.239166,315.205170 471.649231,300.651093 471.181122,286.815857 
	C470.483124,266.186493 471.020172,245.515991 470.963440,224.863190 
	C470.958649,223.122162 470.461029,221.378494 470.153595,219.642914 
	C467.559387,204.997375 450.474335,192.820724 433.663055,197.053955 
	C426.370361,198.890320 420.032013,202.235153 415.497559,208.808044 
	C411.072968,215.221634 409.155060,222.232132 409.064453,229.735291 
	C408.859406,246.721558 408.943878,263.712311 409.045319,280.700439 
	C409.066681,284.277252 409.666473,287.850586 410.000061,292.309967 
z"/>
<path fill="#FFFFFF" opacity="1.000000" stroke="none" 
	d="
M273.186829,94.662796 
	C284.776154,100.951820 289.927460,110.784340 289.942413,123.171234 
	C290.049957,212.296967 290.031433,301.422943 289.973358,390.548737 
	C289.961823,408.230835 278.670074,421.414978 260.950562,422.805542 
	C244.180511,424.121582 228.054031,411.431213 228.037292,392.968597 
	C227.955124,302.343475 228.031418,211.718246 227.967499,121.093109 
	C227.957443,106.817825 239.668472,94.117096 253.146729,91.798805 
	C260.297455,90.568878 266.547119,91.827553 273.186829,94.662796 
z"/>
<path fill="#FFFFFF" opacity="1.000000" stroke="none" 
	d="
M181.141479,356.377411 
	C168.940552,360.798279 157.927170,359.467957 148.234665,351.002960 
	C142.353958,345.866974 138.144730,339.397278 138.110352,331.546356 
	C137.892914,281.912048 137.970978,232.276306 138.023331,182.641113 
	C138.034454,172.085358 149.082367,158.854080 160.120239,156.033325 
	C176.523270,151.841492 193.775574,160.863434 198.253479,176.787567 
	C199.164062,180.025742 199.919189,183.442795 199.926941,186.779297 
	C200.034805,233.249649 200.103256,279.720703 199.935577,326.190674 
	C199.886765,339.715393 194.342392,350.303314 181.141479,356.377411 
z"/>
<path fill="#FFFFFF" opacity="1.000000" stroke="none" 
	d="
M380.000000,237.000000 
	C380.000000,268.653046 379.933319,299.806274 380.037231,330.958984 
	C380.072174,341.433167 370.038910,355.513306 356.439240,358.202637 
	C345.365234,360.392517 335.959320,357.259094 328.057037,350.722534 
	C322.645996,346.246613 319.058746,339.291687 319.045258,331.654755 
	C318.957245,281.843384 318.709198,232.028931 319.195648,182.222137 
	C319.324219,169.061874 329.471313,158.925110 342.935089,155.966431 
	C354.174133,153.496613 363.936401,156.264160 371.767700,164.448425 
	C376.984161,169.899948 380.201324,176.462418 380.079987,184.523926 
	C379.819305,201.845764 380.000000,219.174240 380.000000,237.000000 
z"/>
<path fill="#FFFFFF" opacity="1.000000" stroke="none" 
	d="
M48.000000,287.837646 
	C48.000000,266.713318 48.208508,246.065338 47.924076,225.424149 
	C47.745125,212.437836 60.230026,198.892105 72.673126,196.924911 
	C95.213463,193.361359 110.011787,209.913025 110.001945,229.408981 
	C109.992790,247.556702 110.123383,265.705536 109.957878,283.851746 
	C109.841949,296.562836 105.594055,307.236389 93.787193,313.724609 
	C82.446968,319.956360 68.500229,319.161621 58.421265,309.943146 
	C52.029476,304.097046 47.866737,297.264526 48.000000,287.837646 
z"/>
<path fill="#FFFFFF" opacity="1.000000" stroke="none" 
	d="
M409.999878,291.867737 
	C409.666473,287.850586 409.066681,284.277252 409.045319,280.700439 
	C408.943878,263.712311 408.859406,246.721558 409.064453,229.735291 
	C409.155060,222.232132 411.072968,215.221634 415.497559,208.808044 
	C420.032013,202.235153 426.370361,198.890320 433.663055,197.053955 
	C450.474335,192.820724 467.559387,204.997375 470.153595,219.642914 
	C470.461029,221.378494 470.958649,223.122162 470.963440,224.863190 
	C471.020172,245.515991 470.483124,266.186493 471.181122,286.815857 
	C471.649231,300.651093 459.239166,315.205170 445.447083,317.215637 
	C427.588196,319.818909 412.492920,307.882538 409.999878,291.867737 
z"/>
</svg>