<svg version="1.1" id="Layer_1" xmlns="http://www.w3.org/2000/svg" xmlns:xlink="http://www.w3.org/1999/xlink" x="0px" y="0px"
	 width="100%" viewBox="0 0 512 512" enable-background="new 0 0 512 512" xml:space="preserve">
<path fill="#000000" opacity="1.000000" stroke="none" 
	d="
M513.000000,203.000000 
	C513.000000,306.641479 513.000000,409.782959 513.000000,512.962219 
	C342.400177,512.962219 171.800339,512.962219 1.100256,512.962219 
	C1.100256,342.441895 1.100256,171.883682 1.100256,1.162741 
	C171.666534,1.162741 342.333252,1.162741 513.000000,1.162741 
	C513.000000,68.199615 513.000000,135.349808 513.000000,203.000000 
M40.033375,348.349091 
	C41.244408,350.972473 42.246639,353.718292 43.701157,356.198914 
	C51.747543,369.921539 59.306011,383.982178 68.175346,397.157104 
	C79.086693,413.365265 93.041794,427.137177 108.147392,439.378326 
	C125.065987,453.088654 143.595474,464.464783 163.785721,473.044586 
	C188.836426,483.689911 214.933640,490.154480 241.980911,491.796661 
	C261.509247,492.982330 281.064606,491.939026 300.469574,488.151215 
	C319.504181,484.435730 337.872833,478.829681 355.407959,470.776642 
	C375.465820,461.564880 393.881836,449.670746 410.568756,435.063721 
	C425.220612,422.238068 438.183594,408.043671 449.477783,392.164581 
	C464.641785,370.844757 475.422943,347.514221 482.985718,322.592224 
	C488.043457,305.925018 490.947266,288.785797 491.828369,271.479034 
	C492.824280,251.917038 491.873444,232.377243 488.105743,212.992874 
	C484.405823,193.957397 478.571198,175.664734 470.505554,158.122086 
	C461.347168,138.202789 449.504517,119.969810 435.028778,103.399628 
	C422.217163,88.734352 408.023956,75.764656 392.123840,64.498260 
	C370.786865,49.379486 347.526276,38.467918 322.552155,30.994837 
	C305.861969,26.000587 288.739014,22.993996 271.432343,22.190134 
	C252.383606,21.305355 233.377274,22.157293 214.428894,25.780941 
	C194.707047,29.552505 175.833618,35.437244 157.682190,43.791252 
	C137.896454,52.897415 119.855209,64.665215 103.349266,78.971756 
	C89.959930,90.576965 77.750008,103.271439 67.355843,117.486389 
	C55.479168,133.728806 45.780205,151.318939 38.320335,170.135010 
	C29.131588,193.311859 23.651976,217.343155 22.186266,242.108017 
	C21.145647,259.690491 21.911312,277.322388 24.876858,294.851257 
	C27.952679,313.031952 32.945709,330.558136 40.033375,348.349091 
z"/>
<path fill="#FFFFFF" opacity="1.000000" stroke="none" 
	d="
M39.996349,347.954224 
	C32.945709,330.558136 27.952679,313.031952 24.876858,294.851257 
	C21.911312,277.322388 21.145647,259.690491 22.186266,242.108017 
	C23.651976,217.343155 29.131588,193.311859 38.320335,170.135010 
	C45.780205,151.318939 55.479168,133.728806 67.355843,117.486389 
	C77.750008,103.271439 89.959930,90.576965 103.349266,78.971756 
	C119.855209,64.665215 137.896454,52.897415 157.682190,43.791252 
	C175.833618,35.437244 194.707047,29.552505 214.428894,25.780941 
	C233.377274,22.157293 252.383606,21.305355 271.432343,22.190134 
	C288.739014,22.993996 305.861969,26.000587 322.552155,30.994837 
	C347.526276,38.467918 370.786865,49.379486 392.123840,64.498260 
	C408.023956,75.764656 422.217163,88.734352 435.028778,103.399628 
	C449.504517,119.969810 461.347168,138.202789 470.505554,158.122086 
	C478.571198,175.664734 484.405823,193.957397 488.105743,212.992874 
	C491.873444,232.377243 492.824280,251.917038 491.828369,271.479034 
	C490.947266,288.785797 488.043457,305.925018 482.985718,322.592224 
	C475.422943,347.514221 464.641785,370.844757 449.477783,392.164581 
	C438.183594,408.043671 425.220612,422.238068 410.568756,435.063721 
	C393.881836,449.670746 375.465820,461.564880 355.407959,470.776642 
	C337.872833,478.829681 319.504181,484.435730 300.469574,488.151215 
	C281.064606,491.939026 261.509247,492.982330 241.980911,491.796661 
	C214.933640,490.154480 188.836426,483.689911 163.785721,473.044586 
	C143.595474,464.464783 125.065987,453.088654 108.147392,439.378326 
	C93.041794,427.137177 79.086693,413.365265 68.175346,397.157104 
	C59.306011,383.982178 51.747543,369.921539 43.701157,356.198914 
	C42.246639,353.718292 41.244408,350.972473 39.996349,347.954224 
M377.951843,108.437294 
	C373.794220,105.332527 369.744354,102.069748 365.461456,99.148689 
	C338.046936,80.451187 307.692688,69.138824 274.771881,66.296333 
	C255.162399,64.603180 235.315933,65.438255 215.824158,69.931763 
	C193.681488,75.036385 172.937820,83.443558 153.905762,95.731560 
	C138.039948,105.975281 123.257629,117.756226 111.754890,132.916870 
	C103.376701,143.959335 95.104347,155.220551 88.160164,167.182663 
	C75.200409,189.507217 68.396736,214.154800 66.281219,239.685638 
	C64.746864,258.202789 65.061783,277.027069 69.225769,295.345459 
	C73.794907,315.446228 80.553642,334.815643 91.214676,352.631317 
	C102.096169,370.815491 115.196587,387.050446 131.303238,401.017792 
	C146.602036,414.284607 163.356400,424.898468 181.841843,433.026764 
	C200.629944,441.288116 220.342255,446.276428 240.642151,447.736664 
	C255.532471,448.807770 270.559601,448.733002 285.564453,446.203583 
	C303.307007,443.212646 320.404480,438.574982 336.676239,431.000854 
	C361.629425,419.385864 383.192078,403.342834 401.271851,382.411285 
	C414.398254,367.214417 424.931946,350.588654 433.000977,332.269684 
	C441.270905,313.494598 446.416016,293.769592 447.725677,273.474243 
	C449.045837,253.016052 448.008179,232.498001 443.101379,212.279724 
	C434.984131,178.833038 418.936188,149.869019 395.387329,124.979187 
	C390.055664,119.343903 384.110229,114.289337 377.951843,108.437294 
z"/>
<path fill="#000000" opacity="1.000000" stroke="none" 
	d="
M378.199585,108.702377 
	C384.110229,114.289337 390.055664,119.343903 395.387329,124.979187 
	C418.936188,149.869019 434.984131,178.833038 443.101379,212.279724 
	C448.008179,232.498001 449.045837,253.016052 447.725677,273.474243 
	C446.416016,293.769592 441.270905,313.494598 433.000977,332.269684 
	C424.931946,350.588654 414.398254,367.214417 401.271851,382.411285 
	C383.192078,403.342834 361.629425,419.385864 336.676239,431.000854 
	C320.404480,438.574982 303.307007,443.212646 285.564453,446.203583 
	C270.559601,448.733002 255.532471,448.807770 240.642151,447.736664 
	C220.342255,446.276428 200.629944,441.288116 181.841843,433.026764 
	C163.356400,424.898468 146.602036,414.284607 131.303238,401.017792 
	C115.196587,387.050446 102.096169,370.815491 91.214676,352.631317 
	C80.553642,334.815643 73.794907,315.446228 69.225769,295.345459 
	C65.061783,277.027069 64.746864,258.202789 66.281219,239.685638 
	C68.396736,214.154800 75.200409,189.507217 88.160164,167.182663 
	C95.104347,155.220551 103.376701,143.959335 111.754890,132.916870 
	C123.257629,117.756226 138.039948,105.975281 153.905762,95.731560 
	C172.937820,83.443558 193.681488,75.036385 215.824158,69.931763 
	C235.315933,65.438255 255.162399,64.603180 274.771881,66.296333 
	C307.692688,69.138824 338.046936,80.451187 365.461456,99.148689 
	C369.744354,102.069748 373.794220,105.332527 378.199585,108.702377 
M255.688934,374.999908 
	C268.837585,375.557800 279.165833,364.725250 279.084198,351.558533 
	C278.846710,313.242950 278.989288,274.924957 279.010925,236.607910 
	C279.014374,230.520569 277.065979,225.094025 273.053680,220.654419 
	C267.106903,214.074310 256.377838,211.705795 248.367767,215.291840 
	C239.727859,219.159821 235.153671,226.384811 235.098755,235.622879 
	C234.865967,274.771545 234.900101,313.923004 235.152130,353.071411 
	C235.177765,357.052948 236.744965,361.316986 238.606323,364.929810 
	C241.884705,371.292969 248.140015,373.666992 255.688934,374.999908 
M283.003174,161.313736 
	C287.955536,148.260590 284.464294,135.528397 274.034485,127.653740 
	C264.397186,120.377441 251.703064,119.732025 240.680588,127.078705 
	C230.908173,133.592209 226.354126,147.298813 230.008820,158.694626 
	C233.825562,170.595779 245.491165,179.668350 257.122528,178.840195 
	C268.571747,178.025024 277.815155,173.035004 283.003174,161.313736 
z"/>
<path fill="#FFFFFF" opacity="1.000000" stroke="none" 
	d="
M255.249786,374.999115 
	C248.140015,373.666992 241.884705,371.292969 238.606323,364.929810 
	C236.744965,361.316986 235.177765,357.052948 235.152130,353.071411 
	C234.900101,313.923004 234.865967,274.771545 235.098755,235.622879 
	C235.153671,226.384811 239.727859,219.159821 248.367767,215.291840 
	C256.377838,211.705795 267.106903,214.074310 273.053680,220.654419 
	C277.065979,225.094025 279.014374,230.520569 279.010925,236.607910 
	C278.989288,274.924957 278.846710,313.242950 279.084198,351.558533 
	C279.165833,364.725250 268.837585,375.557800 255.249786,374.999115 
z"/>
<path fill="#FFFFFF" opacity="1.000000" stroke="none" 
	d="
M282.991089,161.718140 
	C277.815155,173.035004 268.571747,178.025024 257.122528,178.840195 
	C245.491165,179.668350 233.825562,170.595779 230.008820,158.694626 
	C226.354126,147.298813 230.908173,133.592209 240.680588,127.078705 
	C251.703064,119.732025 264.397186,120.377441 274.034485,127.653740 
	C284.464294,135.528397 287.955536,148.260590 282.991089,161.718140 
z"/>
</svg>