<svg version="1.1" id="Layer_1" xmlns="http://www.w3.org/2000/svg" xmlns:xlink="http://www.w3.org/1999/xlink" x="0px" y="0px"
	 width="100%" viewBox="0 0 512 512" enable-background="new 0 0 512 512" xml:space="preserve">
<path fill="#000000" opacity="1.000000" stroke="none" 
	d="
M288.000000,513.000000 
	C192.023300,513.000000 96.546600,513.000000 1.034948,513.000000 
	C1.034948,342.398285 1.034948,171.796539 1.034948,1.097402 
	C171.560043,1.097402 342.120178,1.097402 512.840149,1.097402 
	C512.840149,171.666550 512.840149,342.333252 512.840149,513.000000 
	C438.129852,513.000000 363.314911,513.000000 288.000000,513.000000 
M207.500000,440.000000 
	C268.821472,440.000000 330.142975,440.019470 391.464355,439.954346 
	C395.375946,439.950195 399.394897,439.749603 403.180176,438.859253 
	C425.326233,433.650024 444.044312,422.787445 457.974030,404.479248 
	C470.175385,388.442657 476.809265,370.255310 476.920074,350.117767 
	C477.173126,304.127716 477.096222,258.135071 476.954468,212.144089 
	C476.894623,192.730392 477.047699,173.267914 475.685486,153.927521 
	C475.046448,144.854721 471.871185,135.681946 468.385132,127.151161 
	C462.617279,113.036430 452.961823,101.508270 440.767242,92.331352 
	C426.414032,81.530060 410.327240,74.206688 392.239532,74.143623 
	C302.090759,73.829323 211.940323,73.986107 121.790520,74.049088 
	C118.055443,74.051704 114.232361,74.389053 110.600571,75.224113 
	C88.732681,80.252228 70.419418,91.073196 56.530533,108.957283 
	C44.033684,125.048904 37.165886,143.302963 37.087803,163.626007 
	C36.847080,226.280060 36.932423,288.935822 37.106670,351.590302 
	C37.123707,357.717682 38.035168,363.992523 39.552299,369.938446 
	C44.701641,390.119751 54.994347,407.112244 71.578171,420.155670 
	C87.459587,432.646576 105.201546,439.863861 125.515282,439.966370 
	C152.509552,440.102631 179.505035,440.000000 207.500000,440.000000 
z"/>
<path fill="#FFFFFF" opacity="1.000000" stroke="none" 
	d="
M207.000000,440.000000 
	C179.505035,440.000000 152.509552,440.102631 125.515282,439.966370 
	C105.201546,439.863861 87.459587,432.646576 71.578171,420.155670 
	C54.994347,407.112244 44.701641,390.119751 39.552299,369.938446 
	C38.035168,363.992523 37.123707,357.717682 37.106670,351.590302 
	C36.932423,288.935822 36.847080,226.280060 37.087803,163.626007 
	C37.165886,143.302963 44.033684,125.048904 56.530533,108.957283 
	C70.419418,91.073196 88.732681,80.252228 110.600571,75.224113 
	C114.232361,74.389053 118.055443,74.051704 121.790520,74.049088 
	C211.940323,73.986107 302.090759,73.829323 392.239532,74.143623 
	C410.327240,74.206688 426.414032,81.530060 440.767242,92.331352 
	C452.961823,101.508270 462.617279,113.036430 468.385132,127.151161 
	C471.871185,135.681946 475.046448,144.854721 475.685486,153.927521 
	C477.047699,173.267914 476.894623,192.730392 476.954468,212.144089 
	C477.096222,258.135071 477.173126,304.127716 476.920074,350.117767 
	C476.809265,370.255310 470.175385,388.442657 457.974030,404.479248 
	C444.044312,422.787445 425.326233,433.650024 403.180176,438.859253 
	C399.394897,439.749603 395.375946,439.950195 391.464355,439.954346 
	C330.142975,440.019470 268.821472,440.000000 207.000000,440.000000 
M280.021362,185.017670 
	C274.123962,184.678436 268.227112,184.056839 262.329071,184.045197 
	C219.668335,183.960968 177.007324,183.979523 134.346512,184.043015 
	C131.281479,184.047577 128.186615,184.492554 125.158562,185.030655 
	C116.058990,186.647659 110.267509,196.645752 111.108253,203.083633 
	C112.391167,212.907455 119.776070,219.932114 128.499954,219.950424 
	C177.493118,220.053253 226.486633,220.027512 275.479950,219.975647 
	C284.739227,219.965851 292.800140,211.847763 292.997314,202.652344 
	C293.185272,193.887650 288.021515,188.862534 280.021362,185.017670 
M331.500000,257.000000 
	C303.509491,257.000000 275.518860,256.963013 247.528595,257.044189 
	C243.791702,257.055023 240.030685,257.488007 236.325638,258.031158 
	C226.925201,259.409149 220.493423,267.185883 221.000122,276.326111 
	C221.501511,285.370483 229.445969,292.973755 238.682648,292.981323 
	C287.499390,293.021179 336.316254,293.041534 385.132904,292.957092 
	C392.817078,292.943787 398.249878,288.869690 401.439941,282.021912 
	C404.631989,275.169708 401.581024,267.193329 397.496185,262.844727 
	C392.865753,257.915253 386.929291,257.199341 380.981873,257.096191 
	C364.825562,256.815948 348.661194,257.000000 331.500000,257.000000 
M192.500000,331.000000 
	C171.170441,331.000000 149.840149,331.102997 128.511673,330.950378 
	C119.709900,330.887421 111.459518,337.842651 111.177399,348.268005 
	C110.937294,357.140167 118.166222,366.004333 128.633835,366.002930 
	C177.458481,365.996277 226.283875,365.863434 275.107117,366.123352 
	C284.111969,366.171295 292.956268,357.971771 293.000427,348.139282 
	C293.042664,338.741547 284.917206,331.002686 274.985504,331.001312 
	C247.823669,330.997559 220.661835,331.000000 192.500000,331.000000 
M395.369507,187.913177 
	C391.631989,186.608810 387.934662,184.336975 384.149475,184.179764 
	C372.351013,183.689758 360.507446,183.672150 348.704163,184.100525 
	C338.649261,184.465439 330.233215,192.328217 330.932251,203.624969 
	C331.482910,212.523819 339.519135,219.975006 349.352325,219.994476 
	C361.171082,220.017868 372.990021,220.020767 384.808594,219.973022 
	C386.244781,219.967224 387.717194,219.734955 389.108917,219.366425 
	C401.392700,216.113831 409.128601,199.748169 395.369507,187.913177 
M147.500000,293.000000 
	C153.997147,293.000000 160.531723,293.445282 166.983276,292.902863 
	C178.704147,291.917480 186.672379,279.735504 181.696808,268.242706 
	C178.048325,259.815277 170.593369,257.396820 162.392258,257.089050 
	C152.410690,256.714508 142.383484,256.611725 132.416641,257.147278 
	C126.544640,257.462769 120.626083,258.034332 115.994980,263.289185 
	C106.719604,273.813782 111.803535,289.167694 123.867325,291.781769 
	C131.157318,293.361359 138.939240,292.670624 147.500000,293.000000 
M339.104431,333.370789 
	C332.083557,338.713409 328.627106,347.112122 331.361420,353.753143 
	C333.890747,359.896240 340.019928,366.653625 350.455078,366.132812 
	C362.068451,365.553162 373.733063,365.993378 385.375366,366.002014 
	C395.773132,366.009705 403.020416,357.242279 402.820496,348.312408 
	C402.591064,338.062042 394.555664,330.869232 385.587036,330.966583 
	C373.280914,331.100189 360.970001,330.873138 348.666321,331.091980 
	C345.706543,331.144623 342.767120,332.343781 339.104431,333.370789 
z"/>
<path fill="#000000" opacity="1.000000" stroke="none" 
	d="
M280.415802,185.149414 
	C288.021515,188.862534 293.185272,193.887650 292.997314,202.652344 
	C292.800140,211.847763 284.739227,219.965851 275.479950,219.975647 
	C226.486633,220.027512 177.493118,220.053253 128.499954,219.950424 
	C119.776070,219.932114 112.391167,212.907455 111.108253,203.083633 
	C110.267509,196.645752 116.058990,186.647659 125.158562,185.030655 
	C128.186615,184.492554 131.281479,184.047577 134.346512,184.043015 
	C177.007324,183.979523 219.668335,183.960968 262.329071,184.045197 
	C268.227112,184.056839 274.123962,184.678436 280.415802,185.149414 
z"/>
<path fill="#000000" opacity="1.000000" stroke="none" 
	d="
M332.000000,257.000000 
	C348.661194,257.000000 364.825562,256.815948 380.981873,257.096191 
	C386.929291,257.199341 392.865753,257.915253 397.496185,262.844727 
	C401.581024,267.193329 404.631989,275.169708 401.439941,282.021912 
	C398.249878,288.869690 392.817078,292.943787 385.132904,292.957092 
	C336.316254,293.041534 287.499390,293.021179 238.682648,292.981323 
	C229.445969,292.973755 221.501511,285.370483 221.000122,276.326111 
	C220.493423,267.185883 226.925201,259.409149 236.325638,258.031158 
	C240.030685,257.488007 243.791702,257.055023 247.528595,257.044189 
	C275.518860,256.963013 303.509491,257.000000 332.000000,257.000000 
z"/>
<path fill="#000000" opacity="1.000000" stroke="none" 
	d="
M193.000000,331.000000 
	C220.661835,331.000000 247.823669,330.997559 274.985504,331.001312 
	C284.917206,331.002686 293.042664,338.741547 293.000427,348.139282 
	C292.956268,357.971771 284.111969,366.171295 275.107117,366.123352 
	C226.283875,365.863434 177.458481,365.996277 128.633835,366.002930 
	C118.166222,366.004333 110.937294,357.140167 111.177399,348.268005 
	C111.459518,337.842651 119.709900,330.887421 128.511673,330.950378 
	C149.840149,331.102997 171.170441,331.000000 193.000000,331.000000 
z"/>
<path fill="#000000" opacity="1.000000" stroke="none" 
	d="
M395.653381,188.159210 
	C409.128601,199.748169 401.392700,216.113831 389.108917,219.366425 
	C387.717194,219.734955 386.244781,219.967224 384.808594,219.973022 
	C372.990021,220.020767 361.171082,220.017868 349.352325,219.994476 
	C339.519135,219.975006 331.482910,212.523819 330.932251,203.624969 
	C330.233215,192.328217 338.649261,184.465439 348.704163,184.100525 
	C360.507446,183.672150 372.351013,183.689758 384.149475,184.179764 
	C387.934662,184.336975 391.631989,186.608810 395.653381,188.159210 
z"/>
<path fill="#000000" opacity="1.000000" stroke="none" 
	d="
M147.000061,293.000000 
	C138.939240,292.670624 131.157318,293.361359 123.867325,291.781769 
	C111.803535,289.167694 106.719604,273.813782 115.994980,263.289185 
	C120.626083,258.034332 126.544640,257.462769 132.416641,257.147278 
	C142.383484,256.611725 152.410690,256.714508 162.392258,257.089050 
	C170.593369,257.396820 178.048325,259.815277 181.696808,268.242706 
	C186.672379,279.735504 178.704147,291.917480 166.983276,292.902863 
	C160.531723,293.445282 153.997147,293.000000 147.000061,293.000000 
z"/>
<path fill="#000000" opacity="1.000000" stroke="none" 
	d="
M339.461395,333.193237 
	C342.767120,332.343781 345.706543,331.144623 348.666321,331.091980 
	C360.970001,330.873138 373.280914,331.100189 385.587036,330.966583 
	C394.555664,330.869232 402.591064,338.062042 402.820496,348.312408 
	C403.020416,357.242279 395.773132,366.009705 385.375366,366.002014 
	C373.733063,365.993378 362.068451,365.553162 350.455078,366.132812 
	C340.019928,366.653625 333.890747,359.896240 331.361420,353.753143 
	C328.627106,347.112122 332.083557,338.713409 339.461395,333.193237 
z"/>
</svg>